<svg xmlns="http://www.w3.org/2000/svg" xmlns:xlink="http://www.w3.org/1999/xlink" viewBox="0,0,256,256" width="48px" height="48px" fill-rule="nonzero"><g fill="none" fill-rule="nonzero" stroke="none" stroke-width="1" stroke-linecap="butt" stroke-linejoin="miter" stroke-miterlimit="10" stroke-dasharray="" stroke-dashoffset="0" font-family="none" font-weight="none" font-size="none" text-anchor="none" style="mix-blend-mode: normal"><g transform="scale(5.33333,5.33333)"><path d="M47,19h-1.5c-0.2,0 -0.4,0 -0.6,0c-2.8,0 -4.5,-0.5 -5.6,-0.8c0.5,-1.7 1.9,-4.9 3.8,-7.4l1,-1.3l-1.6,-0.3c-1,-0.1 -1.9,-0.2 -2.9,-0.2c-2.3,0 -4.6,0.2 -5.9,0.6c-0.1,-1.3 -0.7,-3.8 -0.7,-6.6v-1h-1c-2.5,0 -6.3,2.8 -7.9,4c-1.7,-1.6 -5.6,-5.1 -8,-5.1l-0.1,0.1h-1v1c0,3.1 -0.5,5.7 -0.8,7c-1.5,-0.1 -4.5,0 -7.8,-0.7l-1.4,-0.3l0.2,1.4c0.7,4.3 2.2,7.4 3.2,9c-1.6,0.5 -3.6,1.7 -6.4,3.8l-1,0.9l1.1,0.8c1.6,1.1 2.7,1.9 3.6,2.5c1,0.6 1,1 1.8,1.7c-2.2,2 -4,3.1 -4.1,3.1l-1.3,0.8l1.4,0.9l4.5,2.6c-0.1,0.6 -0.4,1.6 -0.7,3.9l-0.3,1.6c0,0 6,-1 9,-3h16c0.9,0.4 4,3 6.8,3h1.2l-0.3,-1.2c-0.4,-1.7 -0.6,-2.7 -0.7,-3.3c1.4,-0.9 5.4,-3.4 6.4,-5.5l0.6,-1l-1.1,-0.3c-1.1,-0.3 -2.6,-1 -3.4,-1.6c1.4,-1.3 3.6,-4.1 5,-7.6z" fill="#ff4949"></path><path d="M35,28c-2.20914,0 -4,1.79086 -4,4c0,2.20914 1.79086,4 4,4c2.20914,0 4,-1.79086 4,-4c0,-2.20914 -1.79086,-4 -4,-4zM13,28c-2.20914,0 -4,1.79086 -4,4c0,2.20914 1.79086,4 4,4c2.20914,0 4,-1.79086 4,-4c0,-2.20914 -1.79086,-4 -4,-4z" fill="#bcaaa4"></path><path d="M24,11c-6.1,0 -11,5.4 -11,13.2v9.5c0,7.9 4.9,13.3 11,13.3c6.1,0 11,-5.4 11,-13.2v-9.5c0,-7.9 -4.9,-13.3 -11,-13.3z" fill="#d7ccc8"></path><path d="M25.1,37h-5.3h-0.8v0.9c0,1.2 0.5,2.5 1.6,2.7c0.1,1.2 0.7,2.4 1.9,2.4c1.2,0 1.8,-1.2 2,-2.4c0.7,-0.2 1.5,-0.9 1.5,-2.7v-0.9z" fill="#43a047"></path><path d="M17,39c-0.4,0 -0.8,-0.3 -0.9,-0.7c-0.2,-0.5 0.1,-1.1 0.6,-1.3c0.1,0 3.2,-1.1 7.3,-1.1c4.1,0 7.2,1 7.3,1.1c0.5,0.2 0.8,0.7 0.6,1.3c-0.2,0.5 -0.7,0.8 -1.3,0.6c0,0 -2.9,-0.9 -6.7,-0.9c-3.8,0 -6.7,0.9 -6.7,0.9c0,0.1 -0.1,0.1 -0.2,0.1z" fill="#8d6e63"></path><path d="M22,26v4.5c0,1.1 0.1,4.5 2,4.5c1.9,0 2,-3.4 2,-4.5v-4.5z" fill="#efebe9"></path><path d="M28.5,21c-2.48528,0 -4.5,2.01472 -4.5,4.5c0,2.48528 2.01472,4.5 4.5,4.5c2.48528,0 4.5,-2.01472 4.5,-4.5c0,-2.48528 -2.01472,-4.5 -4.5,-4.5z" fill="#fafafa"></path><path d="M19.5,21c-2.48528,0 -4.5,2.01472 -4.5,4.5c0,2.48528 2.01472,4.5 4.5,4.5c2.48528,0 4.5,-2.01472 4.5,-4.5c0,-2.48528 -2.01472,-4.5 -4.5,-4.5z" fill="#fafafa"></path><g fill="#212121"><path d="M29,24c-0.55228,0 -1,0.44772 -1,1c0,0.55228 0.44772,1 1,1c0.55228,0 1,-0.44772 1,-1c0,-0.55228 -0.44772,-1 -1,-1zM19,25c-0.55228,0 -1,0.44772 -1,1c0,0.55228 0.44772,1 1,1c0.55228,0 1,-0.44772 1,-1c0,-0.55228 -0.44772,-1 -1,-1z"></path></g><g fill="#ca3939"><path d="M24,22c-1.4,0 -2.6,-0.3 -3.7,-0.6c-0.5,-0.1 -1.1,-0.3 -1.5,-0.3c-1.6,-0.2 -2.6,0 -2.6,0c-0.5,0.1 -1.1,-0.2 -1.2,-0.7c-0.1,-0.5 0.2,-1 0.7,-1.2c0.1,0 1.4,-0.3 3.4,0c0.5,0.1 1.1,0.2 1.7,0.4c1,0.3 2,0.5 3.1,0.5c1.1,0 2.1,-0.3 3.1,-0.5c0.6,-0.2 1.2,-0.3 1.7,-0.4c2,-0.3 3.3,0 3.4,0c0.5,0.1 0.9,0.6 0.7,1.2c-0.1,0.5 -0.7,0.8 -1.2,0.7c0,0 -1,-0.2 -2.6,0c-0.4,0.1 -0.9,0.2 -1.5,0.3c-0.9,0.3 -2.1,0.6 -3.5,0.6z"></path></g></g></g></svg>